#Produced by Art of Illusion 3.0.3, Tue Mar 21 15:26:31 EET 2017
mtllib Untitled.mtl
g Spline_Mesh_6
usemtl Animated_ocean
v -1.94567 -0.6711 0.0123
v -1.70049 -0.68747 0.0419
v -1.70226 -0.49722 0.06253
v -1.92818 -0.46821 -0.02037
v -1.70268 -0.30462 0.05501
v -1.91799 -0.26503 -0.05516
v -1.70042 -0.10733 -0.00882
v -1.92239 -0.06127 -0.0942
v -1.68496 0.09135 -0.07273
v -1.91949 0.1422 -0.13111
v -1.64579 0.28811 -0.08045
v -1.88741 0.34452 -0.15954
v -1.60325 0.49143 -0.08509
v -1.84803 0.54655 -0.18585
v -1.57767 0.7098 -0.13977
v -1.82325 0.74916 -0.2164
v -1.56058 0.93568 -0.21947
v -1.80576 0.95205 -0.24907
v -1.46172 -0.70588 0.07114
v -1.47456 -0.52433 0.11868
v -1.48032 -0.33897 0.12259
v -1.47195 -0.14597 0.03925
v -1.4469 0.05105 -0.04406
v -1.40266 0.24847 -0.04006
v -1.3581 0.456 -0.02902
v -1.33206 0.68332 -0.09123
v -1.31529 0.92054 -0.19007
v -1.23575 -0.72839 0.09968
v -1.24331 -0.54765 0.12131
v -1.24388 -0.3628 0.10497
v -1.23045 -0.16975 0.01271
v -1.20175 0.03186 -0.07485
v -1.15651 0.24239 -0.07708
v -1.11222 0.45995 -0.0623
v -1.0864 0.68262 -0.09886
v -1.0698 0.90786 -0.16107
v -1.00338 -0.74885 0.12858
v -0.9994 -0.56338 0.11071
v -0.99146 -0.37254 0.07099
v -0.97557 -0.17096 -0.01244
v -0.94674 0.04128 -0.08698
v -0.89996 0.26413 -0.10001
v -0.85567 0.48545 -0.09292
v -0.8343 0.69312 -0.10708
v -0.82441 0.89395 -0.13187
v -0.74539 -0.76113 0.15888
v -0.7337 -0.56774 0.12719
v -0.72117 -0.36459 0.0895
v -0.70694 -0.1419 0.03981
v -0.67907 0.08679 -0.00232
v -0.62563 0.30794 -0.01735
v -0.57847 0.5147 -0.02883
v -0.56942 0.70022 -0.06035
v -0.57944 0.87512 -0.10188
v -0.481 -0.77136 0.18953
v -0.46497 -0.57084 0.1571
v -0.45108 -0.35801 0.12899
v -0.44149 -0.12056 0.10951
v -0.4177 0.11707 0.09433
v -0.36117 0.33042 0.07913
v -0.31229 0.52176 0.05078
v -0.31143 0.69335 -0.00388
v -0.33458 0.85507 -0.07169
v -0.22942 -0.78568 0.21947
v -0.21193 -0.58279 0.1868
v -0.19925 -0.37188 0.15793
v -0.19619 -0.14495 0.13667
v -0.18157 0.0808 0.11819
v -0.1342 0.28818 0.09767
v -0.08878 0.48071 0.06676
v -0.07998 0.66192 0.01711
v -0.08951 0.83747 -0.0419
v 0.01576 -0.80205 0.24907
v 0.03325 -0.59916 0.2164
v 0.04344 -0.39597 0.1816
v 0.03904 -0.19222 0.14257
v 0.04194 0.01125 0.10565
v 0.07402 0.21357 0.07722
v 0.1134 0.4156 0.05092
v 0.13818 0.61821 0.02037
v 0.15567 0.8211 -0.0123
vn -0.24054 0.0568 0.96898
vn -0.16643 -0.14199 0.97578
vn -0.26646 -0.00967 0.9638
vn -0.35702 0.14452 0.92285
vn -0.30639 0.19695 0.93131
vn -0.38466 0.20214 0.90066
vn -0.22622 0.30193 0.9261
vn -0.27391 0.21093 0.93834
vn -0.17388 0.17455 0.96917
vn -0.22862 0.15526 0.96106
vn -0.2206 0.07713 0.97231
vn -0.29589 0.15869 0.94195
vn -0.25069 0.18015 0.95116
vn -0.3121 0.20215 0.92829
vn -0.20119 0.29737 0.93333
vn -0.21501 0.21664 0.95228
vn -0.13597 0.30193 0.94358
vn -0.10717 0.16706 0.9801
vn -0.10717 0.16706 0.9801
vn -0.10589 -0.22821 0.96784
vn -0.10448 -0.1117 0.98823
vn -0.07407 0.19529 0.97795
vn -0.01149 0.38224 0.92399
vn 0.01366 0.18823 0.98203
vn -0.00294 -0.03098 0.99952
vn -0.03127 0.09763 0.99473
vn -0.07528 0.3108 0.94749
vn -0.10217 0.37618 0.9209
vn -0.07732 -0.07281 0.99434
vn 0.00911 -0.02123 0.99973
vn 0.09712 0.23782 0.96644
vn 0.10423 0.39353 0.91338
vn 0.0914 0.20223 0.97506
vn 0.11952 -0.05154 0.99149
vn 0.11839 0.01734 0.99282
vn 0.02403 0.20798 0.97784
vn -0.06443 0.30113 0.9514
vn -0.0961 0.11208 0.98904
vn -0.03125 0.12546 0.99161
vn 0.0027 0.26545 0.96412
vn -0.06858 0.35367 0.93286
vn -0.13252 0.22548 0.96519
vn -0.1043 0.03823 0.99381
vn -0.05835 0.03269 0.99776
vn -0.05665 0.11854 0.99133
vn -0.07118 0.16146 0.98431
vn -0.10716 0.16708 0.9801
vn -0.09571 0.1651 0.98162
vn -0.12361 0.19294 0.97339
vn -0.23149 0.22013 0.9476
vn -0.32704 0.19098 0.92551
vn -0.3214 0.13942 0.93662
vn -0.25887 0.14975 0.95423
vn -0.18199 0.20374 0.96196
vn -0.12778 0.20077 0.97127
vn -0.10715 0.16707 0.98011
vn -0.10736 0.15238 0.98247
vn -0.12038 0.1173 0.98577
vn -0.1668 0.09987 0.98092
vn -0.21709 0.12294 0.96838
vn -0.20533 0.16166 0.96525
vn -0.1606 0.23405 0.95887
vn -0.13875 0.31599 0.93856
vn -0.12747 0.33662 0.93297
vn -0.10715 0.16706 0.98011
vn -0.10404 0.15751 0.98202
vn -0.08341 0.1277 0.9883
vn -0.0408 0.09951 0.9942
vn -0.00119 0.09331 0.99564
vn 0.03154 0.11653 0.99269
vn 0.03512 0.19043 0.98107
vn -0.02203 0.27462 0.9613
vn -0.07506 0.32783 0.94175
vn -0.10717 0.16706 0.9801
vn -0.10717 0.16706 0.9801
vn -0.10692 0.17002 0.97962
vn -0.08701 0.17119 0.98139
vn -0.0198 0.15823 0.9872
vn 0.06578 0.12734 0.98968
vn 0.11914 0.10031 0.9878
vn 0.12372 0.12361 0.98459
vn 0.05176 0.17676 0.98289
vn -0.03181 0.22694 0.97339
vt 0 0.07465
vt 0.11668 0.06532
vt 0.11584 0.17378
vt 0.00832 0.19032
vt 0.11564 0.28358
vt 0.01317 0.30615
vt 0.11671 0.39605
vt 0.01108 0.42231
vt 0.12407 0.50932
vt 0.01246 0.53831
vt 0.14271 0.62149
vt 0.02773 0.65365
vt 0.16295 0.7374
vt 0.04647 0.76883
vt 0.17513 0.86189
vt 0.05826 0.88433
vt 0.18326 0.99067
vt 0.06658 1
vt 0.23031 0.05483
vt 0.2242 0.15833
vt 0.22145 0.264
vt 0.22544 0.37403
vt 0.23736 0.48635
vt 0.25841 0.59889
vt 0.27962 0.71721
vt 0.29201 0.8468
vt 0.29999 0.98204
vt 0.33784 0.04199
vt 0.33424 0.14503
vt 0.33397 0.25041
vt 0.34036 0.36047
vt 0.35402 0.47541
vt 0.37555 0.59543
vt 0.39663 0.71946
vt 0.40892 0.8464
vt 0.41681 0.97481
vt 0.44842 0.03033
vt 0.45032 0.13606
vt 0.4541 0.24486
vt 0.46166 0.35978
vt 0.47538 0.48078
vt 0.49764 0.60782
vt 0.51872 0.73399
vt 0.52889 0.85239
vt 0.53359 0.96688
vt 0.5712 0.02333
vt 0.57676 0.13358
vt 0.58272 0.24939
vt 0.5895 0.37635
vt 0.60276 0.50672
vt 0.62819 0.6328
vt 0.65063 0.75067
vt 0.65494 0.85643
vt 0.65017 0.95614
vt 0.69702 0.0175
vt 0.70465 0.13181
vt 0.71126 0.25314
vt 0.71582 0.38851
vt 0.72714 0.52398
vt 0.75404 0.64561
vt 0.7773 0.75469
vt 0.77771 0.85252
vt 0.7667 0.94471
vt 0.81674 0.00933
vt 0.82506 0.125
vt 0.8311 0.24524
vt 0.83255 0.37461
vt 0.83951 0.50331
vt 0.86205 0.62153
vt 0.88367 0.73129
vt 0.88786 0.8346
vt 0.88332 0.93468
vt 0.93342 0
vt 0.94174 0.11567
vt 0.94659 0.2315
vt 0.9445 0.34766
vt 0.94588 0.46366
vt 0.96114 0.579
vt 0.97988 0.69417
vt 0.99168 0.80968
vt 1 0.92535
f 1/1/1 2/2/2 3/3/3
f 1/1/1 3/3/3 4/4/4
f 4/4/4 3/3/3 5/5/5
f 4/4/4 5/5/5 6/6/6
f 6/6/6 5/5/5 7/7/7
f 6/6/6 7/7/7 8/8/8
f 8/8/8 7/7/7 9/9/9
f 8/8/8 9/9/9 10/10/10
f 10/10/10 9/9/9 11/11/11
f 10/10/10 11/11/11 12/12/12
f 12/12/12 11/11/11 13/13/13
f 12/12/12 13/13/13 14/14/14
f 14/14/14 13/13/13 15/15/15
f 14/14/14 15/15/15 16/16/16
f 16/16/16 15/15/15 17/17/17
f 16/16/16 17/17/17 18/18/19
f 2/2/2 19/19/20 20/20/21
f 2/2/2 20/20/21 3/3/3
f 3/3/3 20/20/21 21/21/22
f 3/3/3 21/21/22 5/5/5
f 5/5/5 21/21/22 22/22/23
f 5/5/5 22/22/23 7/7/7
f 7/7/7 22/22/23 23/23/24
f 7/7/7 23/23/24 9/9/9
f 9/9/9 23/23/24 24/24/25
f 9/9/9 24/24/25 11/11/11
f 11/11/11 24/24/25 25/25/26
f 11/11/11 25/25/26 13/13/13
f 13/13/13 25/25/26 26/26/27
f 13/13/13 26/26/27 15/15/15
f 15/15/15 26/26/27 27/27/28
f 15/15/15 27/27/28 17/17/17
f 19/19/20 28/28/29 29/29/30
f 19/19/20 29/29/30 20/20/21
f 20/20/21 29/29/30 30/30/31
f 20/20/21 30/30/31 21/21/22
f 21/21/22 30/30/31 31/31/32
f 21/21/22 31/31/32 22/22/23
f 22/22/23 31/31/32 32/32/33
f 22/22/23 32/32/33 23/23/24
f 23/23/24 32/32/33 33/33/34
f 23/23/24 33/33/34 24/24/25
f 24/24/25 33/33/34 34/34/35
f 24/24/25 34/34/35 25/25/26
f 25/25/26 34/34/35 35/35/36
f 25/25/26 35/35/36 26/26/27
f 26/26/27 35/35/36 36/36/37
f 26/26/27 36/36/37 27/27/28
f 28/28/29 37/37/38 38/38/39
f 28/28/29 38/38/39 29/29/30
f 29/29/30 38/38/39 39/39/40
f 29/29/30 39/39/40 30/30/31
f 30/30/31 39/39/40 40/40/41
f 30/30/31 40/40/41 31/31/32
f 31/31/32 40/40/41 41/41/42
f 31/31/32 41/41/42 32/32/33
f 32/32/33 41/41/42 42/42/43
f 32/32/33 42/42/43 33/33/34
f 33/33/34 42/42/43 43/43/44
f 33/33/34 43/43/44 34/34/35
f 34/34/35 43/43/44 44/44/45
f 34/34/35 44/44/45 35/35/36
f 35/35/36 44/44/45 45/45/46
f 35/35/36 45/45/46 36/36/37
f 37/37/38 46/46/47 47/47/48
f 37/37/38 47/47/48 38/38/39
f 38/38/39 47/47/48 48/48/49
f 38/38/39 48/48/49 39/39/40
f 39/39/40 48/48/49 49/49/50
f 39/39/40 49/49/50 40/40/41
f 40/40/41 49/49/50 50/50/51
f 40/40/41 50/50/51 41/41/42
f 41/41/42 50/50/51 51/51/52
f 41/41/42 51/51/52 42/42/43
f 42/42/43 51/51/52 52/52/53
f 42/42/43 52/52/53 43/43/44
f 43/43/44 52/52/53 53/53/54
f 43/43/44 53/53/54 44/44/45
f 44/44/45 53/53/54 54/54/55
f 44/44/45 54/54/55 45/45/46
f 46/46/47 55/55/56 56/56/57
f 46/46/47 56/56/57 47/47/48
f 47/47/48 56/56/57 57/57/58
f 47/47/48 57/57/58 48/48/49
f 48/48/49 57/57/58 58/58/59
f 48/48/49 58/58/59 49/49/50
f 49/49/50 58/58/59 59/59/60
f 49/49/50 59/59/60 50/50/51
f 50/50/51 59/59/60 60/60/61
f 50/50/51 60/60/61 51/51/52
f 51/51/52 60/60/61 61/61/62
f 51/51/52 61/61/62 52/52/53
f 52/52/53 61/61/62 62/62/63
f 52/52/53 62/62/63 53/53/54
f 53/53/54 62/62/63 63/63/64
f 53/53/54 63/63/64 54/54/55
f 55/55/56 64/64/65 65/65/66
f 55/55/56 65/65/66 56/56/57
f 56/56/57 65/65/66 66/66/67
f 56/56/57 66/66/67 57/57/58
f 57/57/58 66/66/67 67/67/68
f 57/57/58 67/67/68 58/58/59
f 58/58/59 67/67/68 68/68/69
f 58/58/59 68/68/69 59/59/60
f 59/59/60 68/68/69 69/69/70
f 59/59/60 69/69/70 60/60/61
f 60/60/61 69/69/70 70/70/71
f 60/60/61 70/70/71 61/61/62
f 61/61/62 70/70/71 71/71/72
f 61/61/62 71/71/72 62/62/63
f 62/62/63 71/71/72 72/72/73
f 62/62/63 72/72/73 63/63/64
f 64/64/65 73/73/75 74/74/76
f 64/64/65 74/74/76 65/65/66
f 65/65/66 74/74/76 75/75/77
f 65/65/66 75/75/77 66/66/67
f 66/66/67 75/75/77 76/76/78
f 66/66/67 76/76/78 67/67/68
f 67/67/68 76/76/78 77/77/79
f 67/67/68 77/77/79 68/68/69
f 68/68/69 77/77/79 78/78/80
f 68/68/69 78/78/80 69/69/70
f 69/69/70 78/78/80 79/79/81
f 69/69/70 79/79/81 70/70/71
f 70/70/71 79/79/81 80/80/82
f 70/70/71 80/80/82 71/71/72
f 71/71/72 80/80/82 81/81/83
f 71/71/72 81/81/83 72/72/73
